HIERARCHY
ROOT Hips
{
	OFFSET	0.00	0.00	0.00
	CHANNELS 6 Xposition Yposition Zposition Zrotation Xrotation Yrotation
	JOINT LeftUpperLeg
	{
		OFFSET	 0.100000	-0.066564	-0.000554
		CHANNELS 3 Zrotation Xrotation Yrotation
		JOINT LeftLowerLeg
		{
			OFFSET	 0.002447	-0.463436	-0.005172
			CHANNELS 3 Zrotation Xrotation Yrotation
			JOINT LeftFoot
			{
				OFFSET	-0.002447	-0.420480	-0.020576
				CHANNELS 3 Zrotation Xrotation Yrotation
				JOINT LeftToes
				{
					OFFSET	 0.003734	-0.104922	 0.126407
					CHANNELS 3 Zrotation Xrotation Yrotation
					End Site
					{
						OFFSET	 0.000000	 0.000000	 0.059955
					}
				}
			}
		}
	}
	JOINT RightUpperLeg
	{
		OFFSET	-0.100000	-0.066564	-0.000554
		CHANNELS 3 Zrotation Xrotation Yrotation
		JOINT RightLowerLeg
		{
			OFFSET	-0.002447	-0.463436	-0.005146
			CHANNELS 3 Zrotation Xrotation Yrotation
			JOINT RightFoot
			{
				OFFSET	 0.002447	-0.420479	-0.020602
				CHANNELS 3 Zrotation Xrotation Yrotation
				JOINT RightToes
				{
					OFFSET	-0.003734	-0.104922	 0.126407
					CHANNELS 3 Zrotation Xrotation Yrotation
					End Site
					{
						OFFSET	-0.000000	 0.000000	 0.059955
					}
				}
			}
		}
	}
	JOINT Spine
	{
		OFFSET	 0.000000	 0.099235	-0.012273
		CHANNELS 3 Zrotation Xrotation Yrotation
		JOINT Chest
		{
			OFFSET	-0.000001	 0.116455	-0.014223
			CHANNELS 3 Zrotation Xrotation Yrotation
			JOINT UpperChest
			{
				OFFSET	 0.000001	 0.133602	-0.016265
				CHANNELS 3 Zrotation Xrotation Yrotation
				JOINT LeftShoulder
				{
					OFFSET	 0.061058	 0.091105	 0.007056
					CHANNELS 3 Zrotation Xrotation Yrotation
					JOINT LeftUpperArm
					{
						OFFSET	 0.133942	-0.002659	-0.026009
						CHANNELS 3 Zrotation Xrotation Yrotation
						JOINT LeftLowerArm
						{
							OFFSET	 0.274047	 0.000000	 0.000000
							CHANNELS 3 Zrotation Xrotation Yrotation
							JOINT LeftHand
							{
								OFFSET	 0.276145	 0.000000	 0.000000
								CHANNELS 3 Zrotation Xrotation Yrotation
								End Site
								{
									OFFSET	 0.165687	 0.000000	 0.000000
								}
							}
						}
					}
				}
				JOINT Neck
				{
					OFFSET	 0.000000	 0.150325	 0.007929
					CHANNELS 3 Zrotation Xrotation Yrotation
					JOINT Head
					{
						OFFSET	 0.000000	 0.103218	 0.031424
						CHANNELS 3 Zrotation Xrotation Yrotation
						End Site
						{
							OFFSET	 0.000000	 0.061931	 0.018855
						}
					}
				}
				JOINT RightShoulder
				{
					OFFSET	-0.061057	 0.091105	 0.007056
					CHANNELS 3 Zrotation Xrotation Yrotation
					JOINT RightUpperArm
					{
						OFFSET	-0.133943	-0.002660	-0.026009
						CHANNELS 3 Zrotation Xrotation Yrotation
						JOINT RightLowerArm
						{
							OFFSET	-0.274047	 0.000000	 0.000000
							CHANNELS 3 Zrotation Xrotation Yrotation
							JOINT RightHand
							{
								OFFSET	-0.276145	 0.000000	 0.000000
								CHANNELS 3 Zrotation Xrotation Yrotation
								End Site
								{
									OFFSET	-0.165687	 0.000000	 0.000000
								}
							}
						}
					}
				}
			}
		}
	}
}
MOTION
Frames:    13
Frame Time: 0.03333334
-0.024160	 1.051230	-0.425310	 0.011715	 8.868365	-51.193100	 6.679267	-2.649238	 18.826570	 0.050837	 15.234180	-0.017850	-0.047363	-16.370470	 17.723750	 0.000401	-0.462222	 0.101016	 6.994567	-22.679120	 10.638270	 0.225888	 18.327710	-0.025408	 26.757880	-6.045961	 12.898300	-0.000472	 1.151540	 3.440866	-0.351834	 1.084176	-3.468976	-0.000000	 0.000000	 0.000000	-0.637288	 2.191984	-6.948504	 8.322409	 6.502408	 16.586640	-85.963640	-1.562765	-1.359370	-17.871500	 18.304160	-44.109700	 47.244650	 27.870590	-26.532640	 20.828590	 6.561422	-22.013150	 21.166370	 6.306118	-21.727230	 0.004770	 0.500052	-25.541890	 72.837200	-4.854315	-7.043494	 9.422086	-5.838962	 52.567340	-50.225980	-11.360090	 8.977472
-0.024160	 1.051230	-0.425310	 0.011715	 8.868365	-51.193100	 6.679267	-2.649238	 18.826570	 0.050837	 15.234180	-0.017850	-0.047363	-16.370470	 17.723750	 0.000401	-0.462222	 0.101016	 6.994567	-22.679120	 10.638270	 0.225888	 18.327710	-0.025408	 26.757880	-6.045961	 12.898300	-0.000472	 1.151540	 3.440866	-0.351834	 1.084176	-3.468976	-0.000000	 0.000000	 0.000000	-0.637288	 2.191984	-6.948504	 8.322409	 6.502408	 16.586640	-85.963640	-1.562765	-1.359370	-17.871500	 18.304160	-44.109700	 47.244650	 27.870590	-26.532640	 20.828590	 6.561422	-22.013150	 21.166370	 6.306118	-21.727230	 0.004770	 0.500052	-25.541890	 72.837200	-4.854315	-7.043494	 9.422086	-5.838962	 52.567340	-50.225980	-11.360090	 8.977472
-0.024160	 1.051230	-0.425310	 0.011715	 8.868365	-51.193100	 6.679267	-2.649238	 18.826570	 0.050837	 15.234180	-0.017850	-0.047363	-16.370470	 17.723750	 0.000401	-0.462222	 0.101016	 6.994567	-22.679120	 10.638270	 0.225888	 18.327710	-0.025408	 26.757880	-6.045961	 12.898300	-0.000472	 1.151540	 3.440866	-0.351834	 1.084176	-3.468976	-0.000000	 0.000000	 0.000000	-0.637288	 2.191984	-6.948504	 8.322409	 6.502408	 16.586640	-85.963640	-1.562765	-1.359370	-17.871500	 18.304160	-44.109700	 47.244650	 27.870590	-26.532640	 20.828590	 6.561422	-22.013150	 21.166370	 6.306118	-21.727230	 0.004770	 0.500052	-25.541890	 72.837200	-4.854315	-7.043494	 9.422086	-5.838962	 52.567340	-50.225980	-11.360090	 8.977472
-0.024160	 1.051230	-0.425310	 0.011715	 8.868365	-51.193100	 6.679267	-2.649238	 18.826570	 0.050837	 15.234180	-0.017850	-0.047363	-16.370470	 17.723750	 0.000401	-0.462222	 0.101016	 6.994567	-22.679120	 10.638270	 0.225888	 18.327710	-0.025408	 26.757880	-6.045961	 12.898300	-0.000472	 1.151540	 3.440866	-0.351834	 1.084176	-3.468976	-0.000000	 0.000000	 0.000000	-0.637288	 2.191984	-6.948504	 8.322409	 6.502408	 16.586640	-85.963640	-1.562765	-1.359370	-17.871500	 18.304160	-44.109700	 47.244650	 27.870590	-26.532640	 20.828590	 6.561422	-22.013150	 21.166370	 6.306118	-21.727230	 0.004770	 0.500052	-25.541890	 72.837200	-4.854315	-7.043494	 9.422086	-5.838962	 52.567340	-50.225980	-11.360090	 8.977472
-0.024160	 1.051230	-0.425310	 0.011715	 8.868365	-51.193100	 6.679267	-2.649238	 18.826570	 0.050837	 15.234180	-0.017850	-0.047363	-16.370470	 17.723750	 0.000401	-0.462222	 0.101016	 6.994567	-22.679120	 10.638270	 0.225888	 18.327710	-0.025408	 26.757880	-6.045961	 12.898300	-0.000472	 1.151540	 3.440866	-0.351834	 1.084176	-3.468976	-0.000000	 0.000000	 0.000000	-0.637288	 2.191984	-6.948504	 8.322409	 6.502408	 16.586640	-85.963640	-1.562765	-1.359370	-17.871500	 18.304160	-44.109700	 47.244650	 27.870590	-26.532640	 20.828590	 6.561422	-22.013150	 21.166370	 6.306118	-21.727230	 0.004770	 0.500052	-25.541890	 72.837200	-4.854315	-7.043494	 9.422086	-5.838962	 52.567340	-50.225980	-11.360090	 8.977472
-0.022700	 1.051390	-0.434850	-0.096281	 8.871446	-53.585240	 7.471363	-3.637454	 20.055700	 0.174737	 17.452820	-0.038119	 0.192050	-16.518950	 18.814870	 0.000257	-0.698827	 0.155942	 6.239415	-21.050070	 7.929560	 0.144552	 16.187920	-0.008833	 21.755420	-7.838193	 5.749492	 0.000317	 0.899239	 2.800179	-0.465835	 1.105673	-3.426972	-0.000000	 0.000000	 0.000000	-0.867560	 2.242395	-6.861562	 7.661055	 6.444617	 16.916020	-85.613440	-1.908872	-0.741629	-17.593560	 17.165150	-43.835110	 46.725350	 27.817860	-24.440800	 20.350650	 6.851389	-21.979550	 20.592340	 6.802456	-22.044940	 0.098182	-0.245890	-25.612360	 72.242610	-4.473104	-7.346542	 9.323716	-6.041225	 52.661250	-50.471280	-11.500430	 8.840375
-0.028750	 1.036490	-0.488170	-1.819591	 6.811348	-60.407640	 11.838180	-6.855038	 22.535610	 0.489797	 29.956460	-0.131445	-1.466968	-19.834350	 21.874120	-0.000197	-0.997992	 0.259853	-6.078359	-11.556250	-1.479659	 0.261358	 13.166780	-0.020980	 6.322975	-4.582147	-4.867093	 0.000425	 0.310398	-0.000414	-0.679749	 1.390238	-4.088115	-0.000000	 0.000000	 0.000000	-1.261779	 2.831427	-8.180909	 4.965351	 6.658904	 15.277380	-81.452010	-2.491806	-2.461777	-18.870620	 17.474530	-41.904030	 46.780450	 27.941070	-23.709690	 17.541840	 7.522127	-26.843740	 17.821160	 7.421699	-25.397350	 0.346212	-0.383724	-29.231580	 71.423000	-3.489896	-3.907089	 8.400056	-13.172180	 54.950060	-57.545490	-15.876440	 9.158444
-0.031450	 1.032340	-0.496390	-1.975672	 6.245066	-60.865610	 12.301240	-7.162940	 22.771640	 0.550648	 31.626820	-0.155802	-2.205232	-20.486290	 21.744420	-0.000375	-1.163068	 0.253777	-8.202012	-8.550697	-1.645970	 0.165314	 9.819339	-0.006881	 5.259262	-2.433825	-5.351226	-0.000069	 0.243057	-0.000647	-0.640792	 1.400979	-4.132649	-0.000000	 0.000000	 0.000000	-1.182565	 2.850254	-8.270998	 5.058757	 5.966578	 16.481780	-81.034360	-2.052029	-2.451461	-18.682050	 17.887410	-41.878710	 47.189720	 27.059440	-24.360270	 16.995060	 7.287159	-25.766260	 16.906640	 7.284728	-25.674200	 0.976000	-1.188959	-28.086600	 70.521820	-4.477438	-3.340457	 8.086080	-13.668940	 55.658940	-58.340990	-16.149620	 10.034670
-0.037260	 1.028290	-0.510690	-2.076327	 5.473200	-61.677720	 12.986260	-7.166811	 23.229780	 0.598956	 32.942550	-0.176314	-3.446041	-20.699160	 21.442420	-0.000335	-1.574410	 0.255850	-9.901008	-2.411447	-2.512971	 0.001554	 0.089477	-0.000170	 3.015741	 3.251559	-5.506234	-0.000666	 0.123679	 0.000144	-0.487048	 1.310082	-4.078876	-0.000000	 0.000000	 0.000000	-0.880364	 2.657920	-8.167898	 4.807355	 5.131237	 16.435280	-80.799800	-1.870088	-2.336605	-18.356580	 18.232600	-42.117280	 46.457340	 26.708130	-24.146480	 15.384550	 6.641942	-26.157900	 15.183420	 6.753708	-26.319930	 0.986542	-1.752219	-28.137620	 68.887600	-6.776437	-1.841043	 8.624627	-14.055650	 57.684860	-58.266020	-18.024230	 10.919130
-0.040170	 1.028730	-0.517150	-2.009107	 5.092170	-62.004220	 12.964760	-6.640352	 23.442820	 0.607502	 32.185870	-0.174160	-3.984742	-20.138890	 21.277840	-0.000373	-2.001749	 0.267396	-10.065260	-1.997283	-1.970218	 0.001559	 0.089420	-0.000052	 3.867295	 2.069456	-3.974689	-0.000449	 0.162592	 0.000444	-0.488962	 1.289363	-4.062874	-0.000000	 0.000000	 0.000000	-0.886920	 2.615628	-8.135286	 4.568467	 4.716590	 16.330330	-80.381100	-1.907919	-2.081649	-18.400670	 18.315990	-42.218630	 46.336560	 26.523540	-24.164050	 14.256700	 6.299418	-26.543010	 14.260350	 6.332314	-26.585580	 0.702991	-1.871462	-28.212880	 68.235030	-7.805872	-1.124476	 8.718907	-13.918490	 58.842250	-58.461860	-18.621640	 11.552340
-0.043630	 1.032920	-0.523770	-1.821080	 4.682495	-62.310800	 12.643580	-5.568513	 23.812470	 0.602585	 30.034430	-0.161635	-4.519858	-18.813570	 20.979590	 0.000585	-1.718953	 0.248464	-10.042840	-1.871866	-1.230144	 0.001101	 0.080217	-0.000739	 2.836218	 2.059407	-2.983474	-0.000136	 0.141266	-0.000063	-0.551290	 1.217970	-4.039597	-0.000000	 0.000000	 0.000000	-1.018039	 2.474740	-8.086533	 4.570779	 4.442556	 16.358680	-80.052230	-1.902031	-1.935476	-18.461330	 18.290740	-42.339240	 46.234250	 26.284450	-24.253720	 13.483400	 5.914807	-26.784510	 13.600970	 6.059314	-26.861890	 0.356309	-1.957906	-28.468090	 67.870410	-8.618002	-0.171563	 8.612573	-13.642340	 60.155740	-58.474850	-18.909880	 11.970460
-0.049520	 1.040340	-0.533330	-1.509838	 4.035697	-62.688900	 11.803360	-3.367321	 24.163370	 0.518013	 25.490060	-0.122748	-5.193907	-16.184330	 20.817790	-0.000511	-1.578693	 0.235700	-10.056340	-1.910539	 0.745722	 0.016075	 0.936307	 0.000105	 0.838209	 1.908960	-2.799849	-0.000476	 0.090600	-0.000306	-0.662040	 1.100047	-4.008127	-0.000000	 0.000000	 0.000000	-1.248722	 2.249184	-8.023064	 4.496499	 4.229061	 16.373330	-79.597600	-1.932727	-1.664109	-18.492800	 18.170650	-42.470330	 46.075230	 25.906680	-24.534040	 12.461690	 5.539896	-27.147410	 12.668520	 5.777931	-27.256460	-0.198271	-2.060627	-28.775350	 67.442180	-9.750994	 1.192810	 8.807715	-13.058730	 62.088310	-58.562450	-19.197610	 12.402250
-0.054900	 1.045320	-0.541570	-1.258324	 3.526907	-62.965120	 11.071470	-1.491724	 24.436690	 0.484247	 21.574750	-0.100478	-5.522622	-13.931550	 20.819120	 0.000070	-1.422414	 0.247618	-10.358410	-3.794649	 3.227257	 0.169962	 6.934856	-0.005630	 0.419001	-1.181492	-3.010340	 0.000061	 0.089124	-0.000697	-0.767864	 1.006588	-3.982257	-0.000000	 0.000000	 0.000000	-1.464463	 2.067808	-7.969750	 4.442293	 4.228993	 16.364870	-79.229230	-2.031555	-1.428848	-18.509490	 18.142680	-42.570290	 46.171780	 25.729770	-24.888370	 11.819200	 5.431879	-27.471320	 12.017630	 5.626682	-27.558920	-0.885085	-1.627301	-29.484590	 67.686410	-10.057180	 2.668341	 8.636129	-12.644760	 63.565090	-59.271610	-18.875500	 12.849380
